<?xml version="1.0" standalone="no"?>
<!DOCTYPE svg PUBLIC "-//W3C//DTD SVG 1.0//EN" "http://www.w3.org/TR/2001/REC-SVG-20010904/DTD/svg10.dtd">
<svg xmlns="http://www.w3.org/2000/svg" xmlns:xlink="http://www.w3.org/1999/xlink" id="body_1" width="61" height="46">

<g transform="matrix(0.15768114 0 0 0.15768114 7.4999995 -0)">
	<g>
        <path d="M291.728 145.86L252.239 174.38L272.188 218.819L223.719 223.715L218.823 272.194L174.384 252.235L145.864 291.724L117.343994 252.235L72.905 272.194L68.009 223.715L19.54 218.819L39.489 174.38L0 145.86L39.489 117.349L19.53 72.909L68.009 68.013L72.914 19.534L117.344 39.493L145.864 0.0040016174L174.384 39.493L218.823 19.534L223.70999 68.013L272.189 72.909L252.23999 117.339C 252.24 117.34 291.728 145.86 291.728 145.86z" stroke="none" fill="#82A05A" fill-rule="nonzero" />
        <path d="M108.035 127.615C 105.199005 127.615 103.093 129.375 103.093 132.52899L103.093 132.52899L103.093 156.36299L102.956 156.36299L82.05 129.694C 81.193 128.554 79.151 127.606 77.892006 127.606C 75.05601 127.606 72.950005 129.366 72.950005 132.52L72.950005 132.52L72.950005 168.343C 72.950005 171.498 75.05601 173.257 77.892006 173.257C 80.73701 173.257 82.843 171.49701 82.843 168.343L82.843 168.343L82.843 144.82901L82.98 144.82901L103.887 171.17902C 104.808 172.31902 106.777 173.26701 108.036 173.26701C 110.881004 173.26701 112.987 171.50702 112.987 168.35301L112.987 168.35301L112.987 132.53C 112.986 129.384 110.88 127.615 108.035 127.615zM147.241 164.186L135.032 164.186L135.032 154.603L145.855 154.603C 149.028 154.603 150.66899 152.397 150.66899 150.254C 150.66899 148.038 149.083 145.896 145.855 145.896L145.855 145.896L135.032 145.896L135.032 136.687L146.63899 136.687C 149.739 136.687 151.325 134.481 151.325 132.338C 151.325 130.132 149.81099 127.971 146.63899 127.971L146.63899 127.971L130.282 127.971C 126.79 127.971 125.148994 130.30501 125.148994 133.469L125.148994 133.469L125.148994 168.15298C 125.148994 170.98898 127.31899 172.87599 130.228 172.87599L130.228 172.87599L147.242 172.87599C 150.34201 172.87599 151.919 170.67899 151.919 168.527C 151.918 166.329 150.405 164.186 147.241 164.186zM214 127.615C 210.836 127.615 209.314 129.375 208.73 132.15599L208.73 132.15599L203.123 158.95299L202.98601 158.95299L194.41501 131.33598C 193.695 129.06598 191.716 127.61598 189.28201 127.61598C 186.84802 127.61598 184.86002 129.06598 184.14001 131.33598L184.14001 131.33598L175.56902 158.95299L175.44101 158.95299L169.83401 132.15599C 169.24101 129.37498 167.72801 127.61499 164.55501 127.61499C 161.66501 127.61499 159.878 129.758 159.878 131.78198L159.878 131.78198L160.13301 133.91599L168.51201 168.344C 169.16801 170.98799 171.348 173.258 175.04001 173.258C 178.268 173.258 180.77501 171.234 181.56801 168.65399L181.56801 168.65399L189.218 144.319L189.355 144.319L197.00499 168.65399C 197.79799 171.234 200.30598 173.258 203.53299 173.258C 207.22598 173.258 209.41399 170.98799 210.06999 168.344L210.06999 168.344L218.43999 133.91599L218.704 131.78198C 218.678 129.758 216.9 127.615 214 127.615z" stroke="none" fill="#FFFFFF" fill-rule="nonzero" />
	</g>
	<g>
	</g>
	<g>
	</g>
	<g>
	</g>
	<g>
	</g>
	<g>
	</g>
	<g>
	</g>
	<g>
	</g>
	<g>
	</g>
	<g>
	</g>
	<g>
	</g>
	<g>
	</g>
	<g>
	</g>
	<g>
	</g>
	<g>
	</g>
	<g>
	</g>
</g>
</svg>